# xmcd
#
# Track frame offsets:
#	150
#	10697
#	23835
#	35220
#	47455
#	60350
#	74512
#	88307
#
# Disc length: 1371
#
# Revision: 2
# Processed by: cddbd v1.5.2PL0 Copyright (c) Steve Scherf et al.
# Submitted via: jack 3.1.1
# Normalized: r0:DSETVAR1
#
DISCID=63055908
DTITLE=Various Artist - The Essential Guide To Blues On CD
DYEAR=1995
DGENRE=Blues
TTITLE0=Buddy Guy - First Time I Met The BlueS
TTITLE1=Elmore James - Dust My Broom
TTITLE2=John Lee Hooker - Boom Boom
TTITLE3=Jimmy Reed - Honest I Do
TTITLE4=Muddy Waters - Got My Mojo Working
TTITLE5=Sonny Boy Williamson - Help Me
TTITLE6=Howlin' Wolf - Smokestack Lightnin'
TTITLE7=Bo Diddley - You Can't Judge A Book By The Cover
EXTD=
EXTT0=
EXTT1=
EXTT2=
EXTT3=
EXTT4=
EXTT5=
EXTT6=
EXTT7=
PLAYORDER=
